<svg width="24" height="24" viewBox="0 0 24 24" fill="none" xmlns="http://www.w3.org/2000/svg">
<path fill-rule="evenodd" clip-rule="evenodd" d="M16.6793 7.32147C19.8095 8.26957 22.0006 11.1683 22.0006 14.5C22.0006 15.7913 21.6734 17.0357 21.0603 18.1387L21.9814 21.3626C22.0891 21.7398 21.7404 22.0885 21.3633 21.9808L18.1393 21.0596C17.0364 21.6728 15.7919 22 14.5006 22C11.1721 22 8.27178 19.8126 7.32207 16.6786C6.815 16.5249 6.32592 16.3176 5.86189 16.0596L2.63797 16.9808C2.2608 17.0885 1.91209 16.7398 2.01985 16.3626L2.94097 13.1387C2.32783 12.0357 2.00061 10.7913 2.00061 9.5C2.00061 5.35786 5.35848 2 9.50061 2C12.8851 2 15.7459 4.24179 16.6793 7.32147ZM5.79042 15.04C5.92284 15.0022 6.06499 15.0207 6.18335 15.0911C7.17883 15.6831 8.31591 16 9.50061 16C13.0905 16 16.0006 13.0899 16.0006 9.5C16.0006 5.91015 13.0905 3 9.50061 3C5.91076 3 3.00061 5.91015 3.00061 9.5C3.00061 10.6847 3.31755 11.8218 3.90955 12.8173C3.97994 12.9356 3.9984 13.0778 3.96057 13.2102L3.22862 15.772L5.79042 15.04ZM17.0006 9.5C17.0006 9.15018 16.9767 8.80595 16.9303 8.46886C19.3506 9.44299 21.0006 11.8087 21.0006 14.5C21.0006 15.6847 20.6837 16.8218 20.0917 17.8173C20.0213 17.9356 20.0028 18.0778 20.0407 18.2102L20.7726 20.772L18.2108 20.04C18.0784 20.0022 17.9362 20.0207 17.8179 20.0911C16.8224 20.6831 15.6853 21 14.5006 21C11.8116 21 9.4448 19.3526 8.46952 16.9296C8.80859 16.9763 9.1529 17 9.50061 17C13.6427 17 17.0006 13.6421 17.0006 9.5Z" fill="#1455FE"/>
</svg>
