<svg width="40" height="40" viewBox="0 0 40 40" fill="none" xmlns="http://www.w3.org/2000/svg">
<path fill-rule="evenodd" clip-rule="evenodd" d="M28.5292 8.62659C28.2311 8.97723 28.2737 9.50314 28.6243 9.80125C34.2567 14.5898 34.9408 23.0377 30.1523 28.6702C29.6849 29.2198 29.174 29.7308 28.6243 30.1981C28.2737 30.4962 28.2311 31.0222 28.5292 31.3728C28.8273 31.7234 29.3532 31.766 29.7039 31.4679C30.3219 30.9424 30.8966 30.3678 31.422 29.7497C36.8068 23.416 36.0376 13.9163 29.7039 8.53146C29.3532 8.23336 28.8273 8.27594 28.5292 8.62659ZM11.4658 8.62692C11.1679 8.27612 10.642 8.23326 10.2912 8.53118C3.95729 13.9103 3.1833 23.4056 8.56241 29.7394C9.09082 30.3616 9.66898 30.9398 10.2912 31.4682C10.642 31.7661 11.1679 31.7233 11.4658 31.3725C11.7637 31.0217 11.7208 30.4958 11.37 30.1978C10.8168 29.728 10.3026 29.2138 9.83277 28.6606C5.0495 23.0283 5.73776 14.5848 11.37 9.80154C11.7208 9.50362 11.7637 8.97773 11.4658 8.62692ZM14.7247 26.8818C15.066 27.1905 15.0923 27.7175 14.7835 28.0588C14.4747 28.4001 13.9477 28.4264 13.6065 28.1176C13.3362 27.8731 13.0784 27.6153 12.8339 27.3451C8.77717 22.8617 9.12305 15.9385 13.6065 11.8818C13.9477 11.573 14.4747 11.5993 14.7835 11.9406C15.0923 12.2818 15.066 12.8088 14.7247 13.1176C10.9238 16.5568 10.6306 22.426 14.0698 26.2268C14.277 26.4559 14.4956 26.6745 14.7247 26.8818ZM14.9974 19.9997C14.9974 22.7611 17.236 24.9997 19.9974 24.9997C22.7588 24.9997 24.9974 22.7611 24.9974 19.9997C24.9974 17.2383 22.7588 14.9997 19.9974 14.9997C17.236 14.9997 14.9974 17.2383 14.9974 19.9997ZM23.3307 19.9997C23.3307 21.8406 21.8383 23.333 19.9974 23.333C18.1564 23.333 16.6641 21.8406 16.6641 19.9997C16.6641 18.1587 18.1564 16.6663 19.9974 16.6663C21.8383 16.6663 23.3307 18.1587 23.3307 19.9997ZM25.2739 13.1196C24.9315 12.8121 24.9032 12.2852 25.2108 11.9428C25.5183 11.6004 26.0452 11.5722 26.3876 11.8797C30.8721 15.9077 31.2422 22.8085 27.2142 27.293C26.9537 27.5831 26.6777 27.8591 26.3876 28.1197C26.0452 28.4272 25.5183 28.3989 25.2108 28.0565C24.9032 27.7141 24.9315 27.1873 25.2739 26.8797C25.5197 26.6589 25.7535 26.4251 25.9743 26.1793C29.3872 22.3796 29.0736 16.5326 25.2739 13.1196Z" fill="#1455FE"/>
</svg>
