<svg width="24" height="24" viewBox="0 0 24 24" fill="none" xmlns="http://www.w3.org/2000/svg">
<path fill-rule="evenodd" clip-rule="evenodd" d="M20 19.501V6.52898C20.0084 6.39623 19.9642 6.25806 19.8536 6.14745L15.8536 2.14745C15.7429 2.03684 15.6048 1.99258 15.472 2.001H6.5C5.11929 2.001 4 3.12029 4 4.501V19.501C4 20.8817 5.11929 22.001 6.5 22.001H17.5C18.8807 22.001 20 20.8817 20 19.501ZM6.5 3.001H15V6.501C15 6.77714 15.2239 7.001 15.5 7.001H19V19.501C19 20.3294 18.3284 21.001 17.5 21.001H6.5C5.67157 21.001 5 20.3294 5 19.501V4.501C5 3.67258 5.67157 3.001 6.5 3.001ZM16 3.70811V6.001H18.2929L16 3.70811ZM13.8173 15.0166L12.288 11.9579C12.6999 11.8343 13 11.4522 13 11V10C13 9.44772 12.5523 9 12 9H11C10.4477 9 10 9.44772 10 10V11C10 11.4522 10.3001 11.8343 10.712 11.9579L9.18266 15.0166C9.12344 15.0057 9.06239 15 9 15H8C7.44772 15 7 15.4477 7 16V17C7 17.5523 7.44772 18 8 18H9C9.55228 18 10 17.5523 10 17V16H13V17C13 17.5523 13.4477 18 14 18H15C15.5523 18 16 17.5523 16 17V16C16 15.4477 15.5523 15 15 15H14C13.9376 15 13.8766 15.0057 13.8173 15.0166ZM11 10V11H12V10H11ZM8 17V16H9V17H8ZM14 16V17H15V16H14ZM10.309 15L11.5 12.618L12.691 15H10.309Z" fill="#1455FE"/>
</svg>
