<svg width="41" height="40" viewBox="0 0 41 40" fill="none" xmlns="http://www.w3.org/2000/svg">
<path fill-rule="evenodd" clip-rule="evenodd" d="M33.8307 32.5023V10.8823C33.8448 10.661 33.771 10.4307 33.5867 10.2464L26.92 3.57973C26.7356 3.39539 26.5053 3.32162 26.2841 3.33566H11.3307C9.02954 3.33566 7.16406 5.20113 7.16406 7.50232V32.5023C7.16406 34.8035 9.02954 36.669 11.3307 36.669H29.6641C31.9652 36.669 33.8307 34.8035 33.8307 32.5023ZM11.3307 5.00228H25.4974V10.8356C25.4974 11.2958 25.8705 11.6689 26.3307 11.6689H32.1641V32.5023C32.1641 33.883 31.0448 35.0023 29.6641 35.0023H11.3307C9.95002 35.0023 8.83073 33.883 8.83073 32.5023V7.50228C8.83073 6.12157 9.95002 5.00228 11.3307 5.00228ZM27.1641 6.18066V10.0022H30.9856L27.1641 6.18066ZM20.4987 29.167V17.8455L24.0761 21.4229C24.4015 21.7484 24.9292 21.7484 25.2546 21.4229C25.5801 21.0975 25.5801 20.5698 25.2546 20.2444L20.2546 15.2444C19.9292 14.919 19.4015 14.919 19.0761 15.2444L14.0761 20.2444C13.7507 20.5698 13.7507 21.0975 14.0761 21.4229C14.4015 21.7484 14.9292 21.7484 15.2546 21.4229L18.832 17.8455V29.167C18.832 29.6272 19.2051 30.0003 19.6654 30.0003C20.1256 30.0003 20.4987 29.6272 20.4987 29.167Z" fill="#1455FE"/>
</svg>
