<svg width="40" height="40" viewBox="0 0 40 40" fill="none" xmlns="http://www.w3.org/2000/svg">
<path fill-rule="evenodd" clip-rule="evenodd" d="M19.9984 35C22.1427 35 24.0178 33.6387 24.7137 31.6667H27.3692C27.9522 31.6667 28.5287 31.5443 29.0614 31.3075C31.1643 30.3729 32.1113 27.9106 31.1767 25.8078L29.9984 23.1565V18.3333C29.9984 13.9793 27.2157 10.2751 23.3317 8.90235V8.33333C23.3317 6.49238 21.8393 5 19.9984 5C18.1574 5 16.6651 6.49238 16.6651 8.33333V8.90235C12.7811 10.2751 9.9984 13.9793 9.9984 18.3333V23.1565L8.82006 25.8078C8.58328 26.3405 8.46094 26.917 8.46094 27.5C8.46094 29.8012 10.3264 31.6667 12.6276 31.6667H15.2829C15.9769 33.6336 17.8494 35 19.9984 35ZM17.1133 31.6667H22.8896C22.3075 32.6742 21.2194 33.3333 20.0015 33.3333C18.7813 33.3333 17.6945 32.6722 17.1133 31.6667ZM21.6641 8.4716V8.33333C21.6641 7.41286 20.9179 6.66667 19.9974 6.66667C19.0769 6.66667 18.3307 7.41286 18.3307 8.33333V8.4716C18.8727 8.38067 19.4295 8.33333 19.9974 8.33333C20.5653 8.33333 21.122 8.38067 21.6641 8.4716ZM11.6651 18.3333C11.6651 13.731 15.396 10 19.9984 10C24.6008 10 28.3317 13.731 28.3317 18.3333V23.3333L28.4036 23.6718L29.6537 26.4847C30.2145 27.7464 29.6462 29.2238 28.3845 29.7845C28.0649 29.9266 27.719 30 27.3692 30H12.6276C11.2469 30 10.1276 28.8807 10.1276 27.5C10.1276 27.1502 10.201 26.8043 10.3431 26.4847L11.5932 23.6718L11.6651 23.3333V18.3333Z" fill="#1455FE"/>
</svg>
