<svg width="41" height="40" viewBox="0 0 41 40" fill="none" xmlns="http://www.w3.org/2000/svg">
<path fill-rule="evenodd" clip-rule="evenodd" d="M23.9016 22.6079C22.8622 23.0737 21.7101 23.3327 20.4974 23.3327C19.2872 23.3327 18.1372 23.0747 17.0995 22.6107L10.2962 25.7031C9.40374 26.1088 8.83073 26.9987 8.83073 27.9791V29.166C8.83073 30.5467 9.95002 31.666 11.3307 31.666H19.6641C20.1243 31.666 20.4974 32.0391 20.4974 32.4993C20.4974 32.9596 20.1243 33.3327 19.6641 33.3327H11.3307C9.02954 33.3327 7.16406 31.4672 7.16406 29.166V27.9791C7.16406 26.3451 8.11907 24.862 9.60655 24.1859L15.3677 21.5672C13.4175 20.0419 12.1641 17.667 12.1641 14.9993C12.1641 10.397 15.895 6.66602 20.4974 6.66602C25.0998 6.66602 28.8307 10.397 28.8307 14.9993C28.8307 17.6542 27.5892 20.0191 25.6551 21.5452L29.9917 23.3998C30.4149 23.5808 30.6112 24.0705 30.4303 24.4937C30.2493 24.9169 29.7595 25.1132 29.3364 24.9322L23.9016 22.6079ZM28.8307 31.666V27.4993C28.8307 27.0391 29.2038 26.666 29.6641 26.666C30.1243 26.666 30.4974 27.0391 30.4974 27.4993V31.666H34.6641C35.1243 31.666 35.4974 32.0391 35.4974 32.4993C35.4974 32.9596 35.1243 33.3327 34.6641 33.3327H30.4974V37.4993C30.4974 37.9596 30.1243 38.3327 29.6641 38.3327C29.2038 38.3327 28.8307 37.9596 28.8307 37.4993V33.3327H24.6641C24.2038 33.3327 23.8307 32.9596 23.8307 32.4993C23.8307 32.0391 24.2038 31.666 24.6641 31.666H28.8307ZM27.1641 14.9993C27.1641 18.6812 24.1793 21.666 20.4974 21.666C16.8155 21.666 13.8307 18.6812 13.8307 14.9993C13.8307 11.3175 16.8155 8.33268 20.4974 8.33268C24.1793 8.33268 27.1641 11.3175 27.1641 14.9993Z" fill="#1455FE"/>
</svg>
