<svg width="41" height="40" viewBox="0 0 41 40" fill="none" xmlns="http://www.w3.org/2000/svg">
<path fill-rule="evenodd" clip-rule="evenodd" d="M33.8332 32.5016V10.8816C33.8472 10.6603 33.7734 10.43 33.5891 10.2457L26.9224 3.579C26.7381 3.39466 26.5078 3.32089 26.2865 3.33492H11.3332C9.03198 3.33492 7.1665 5.2004 7.1665 7.50159V32.5016C7.1665 34.8028 9.03198 36.6683 11.3332 36.6683H29.6665C31.9677 36.6683 33.8332 34.8028 33.8332 32.5016ZM11.3333 5.00163H25.5V10.835C25.5 11.2952 25.8731 11.6683 26.3333 11.6683H32.1667V32.5016C32.1667 33.8823 31.0474 35.0016 29.6667 35.0016H11.3333C9.95262 35.0016 8.83333 33.8823 8.83333 32.5016V7.50163C8.83333 6.12092 9.95262 5.00163 11.3333 5.00163ZM27.1667 6.18001V10.0015H30.9882L27.1667 6.18001ZM20.5 29.1667V17.8452L24.0774 21.4226C24.4028 21.748 24.9305 21.748 25.2559 21.4226C25.5814 21.0972 25.5814 20.5695 25.2559 20.2441L20.2559 15.2441C19.9305 14.9186 19.4028 14.9186 19.0774 15.2441L14.0774 20.2441C13.752 20.5695 13.752 21.0972 14.0774 21.4226C14.4028 21.748 14.9305 21.748 15.2559 21.4226L18.8333 17.8452V29.1667C18.8333 29.6269 19.2064 30 19.6667 30C20.1269 30 20.5 29.6269 20.5 29.1667Z" fill="#1E2029" fill-opacity="0.2"/>
</svg>
